<svg width="600" height="88" viewBox="0 0 600 88" fill="none" xmlns="http://www.w3.org/2000/svg">
<g id="de5-logo">
<path d="M0 14.6667V0H7.78595V14.6667H0Z" fill="currentColor"/>
<path d="M7.79229 14.6667V0H15.5782V14.6667H7.79229Z" fill="currentColor"/>
<path d="M15.5846 14.6667V0H23.3705V14.6667H15.5846Z" fill="currentColor"/>
<path d="M23.3769 14.6667V0H31.1628V14.6667H23.3769Z" fill="currentColor"/>
<path d="M31.1692 14.6667V0H38.9551V14.6667H31.1692Z" fill="currentColor"/>
<path d="M38.9615 14.6667V0H46.7474V14.6667H38.9615Z" fill="currentColor"/>
<path d="M62.3383 14.6667V0H70.1243V14.6667H62.3383Z" fill="currentColor"/>
<path d="M70.1306 14.6667V0H77.9166V14.6667H70.1306Z" fill="currentColor"/>
<path d="M77.9229 14.6667V0H85.7089V14.6667H77.9229Z" fill="currentColor"/>
<path d="M85.7152 14.6667V0H93.5011V14.6667H85.7152Z" fill="currentColor"/>
<path d="M93.5075 14.6667V0H101.293V14.6667H93.5075Z" fill="currentColor"/>
<path d="M101.3 14.6667V0H109.086V14.6667H101.3Z" fill="currentColor"/>
<path d="M109.092 14.6667V0H116.878V14.6667H109.092Z" fill="currentColor"/>
<path d="M124.677 14.6667V0H132.463V14.6667H124.677Z" fill="currentColor"/>
<path d="M132.469 14.6667V0H140.255V14.6667H132.469Z" fill="currentColor"/>
<path d="M140.261 14.6667V0H148.047V14.6667H140.261Z" fill="currentColor"/>
<path d="M148.054 14.6667V0H155.839V14.6667H148.054Z" fill="currentColor"/>
<path d="M155.846 14.6667V0H163.632V14.6667H155.846Z" fill="currentColor"/>
<path d="M163.638 14.6667V0H171.424V14.6667H163.638Z" fill="currentColor"/>
<path d="M171.43 14.6667V0H179.216V14.6667H171.43Z" fill="currentColor"/>
<path d="M194.807 14.6667V0H202.593V14.6667H194.807Z" fill="currentColor"/>
<path d="M202.6 14.6667V0H210.385V14.6667H202.6Z" fill="currentColor"/>
<path d="M225.976 14.6667V0H233.762V14.6667H225.976Z" fill="currentColor"/>
<path d="M233.769 14.6667V0H241.555V14.6667H233.769Z" fill="currentColor"/>
<path d="M241.561 14.6667V0H249.347V14.6667H241.561Z" fill="currentColor"/>
<path d="M249.353 14.6667V0H257.139V14.6667H249.353Z" fill="currentColor"/>
<path d="M257.146 14.6667V0H264.932V14.6667H257.146Z" fill="currentColor"/>
<path d="M264.938 14.6667V0H272.724V14.6667H264.938Z" fill="currentColor"/>
<path d="M288.315 14.6667V0H296.101V14.6667H288.315Z" fill="currentColor"/>
<path d="M296.107 14.6667V0H303.893V14.6667H296.107Z" fill="currentColor"/>
<path d="M303.899 14.6667V0H311.685V14.6667H303.899Z" fill="currentColor"/>
<path d="M342.861 14.6667V0H350.647V14.6667H342.861Z" fill="currentColor"/>
<path d="M350.653 14.6667V0H358.439V14.6667H350.653Z" fill="currentColor"/>
<path d="M397.407 14.6667V0H405.193V14.6667H397.407Z" fill="currentColor"/>
<path d="M405.199 14.6667V0H412.985V14.6667H405.199Z" fill="currentColor"/>
<path d="M412.991 14.6667V0H420.777V14.6667H412.991Z" fill="currentColor"/>
<path d="M420.784 14.6667V0H428.57V14.6667H420.784Z" fill="currentColor"/>
<path d="M428.576 14.6667V0H436.362V14.6667H428.576Z" fill="currentColor"/>
<path d="M436.368 14.6667V0H444.154V14.6667H436.368Z" fill="currentColor"/>
<path d="M459.745 14.6667V0H467.531V14.6667H459.745Z" fill="currentColor"/>
<path d="M467.537 14.6667V0H475.323V14.6667H467.537Z" fill="currentColor"/>
<path d="M475.33 14.6667V0H483.116V14.6667H475.33Z" fill="currentColor"/>
<path d="M483.122 14.6667V0H490.908V14.6667H483.122Z" fill="currentColor"/>
<path d="M490.914 14.6667V0H498.7V14.6667H490.914Z" fill="currentColor"/>
<path d="M498.707 14.6667V0H506.493V14.6667H498.707Z" fill="currentColor"/>
<path d="M522.083 14.6667V0H529.869V14.6667H522.083Z" fill="currentColor"/>
<path d="M529.876 14.6667V0H537.662V14.6667H529.876Z" fill="currentColor"/>
<path d="M537.668 14.6667V0H545.454V14.6667H537.668Z" fill="currentColor"/>
<path d="M576.629 14.6667V0H584.415V14.6667H576.629Z" fill="currentColor"/>
<path d="M584.422 14.6667V0H592.208V14.6667H584.422Z" fill="currentColor"/>
<path d="M592.214 14.6667V0H600V14.6667H592.214Z" fill="currentColor"/>
<path d="M0 33V18.3333H7.78595V33H0Z" fill="currentColor"/>
<path d="M7.79229 33V18.3333H15.5782V33H7.79229Z" fill="currentColor"/>
<path d="M38.9615 33V18.3333H46.7474V33H38.9615Z" fill="currentColor"/>
<path d="M46.7537 33V18.3333H54.5397V33H46.7537Z" fill="currentColor"/>
<path d="M62.3383 33V18.3333H70.1243V33H62.3383Z" fill="currentColor"/>
<path d="M70.1306 33V18.3333H77.9166V33H70.1306Z" fill="currentColor"/>
<path d="M124.677 33V18.3333H132.463V33H124.677Z" fill="currentColor"/>
<path d="M132.469 33V18.3333H140.255V33H132.469Z" fill="currentColor"/>
<path d="M187.015 33V18.3333H194.801V33H187.015Z" fill="currentColor"/>
<path d="M194.807 33V18.3333H202.593V33H194.807Z" fill="currentColor"/>
<path d="M202.6 33V18.3333H210.385V33H202.6Z" fill="currentColor"/>
<path d="M218.184 33V18.3333H225.97V33H218.184Z" fill="currentColor"/>
<path d="M225.976 33V18.3333H233.762V33H225.976Z" fill="currentColor"/>
<path d="M288.315 33V18.3333H296.101V33H288.315Z" fill="currentColor"/>
<path d="M296.107 33V18.3333H303.893V33H296.107Z" fill="currentColor"/>
<path d="M303.899 33V18.3333H311.685V33H303.899Z" fill="currentColor"/>
<path d="M311.692 33V18.3333H319.478V33H311.692Z" fill="currentColor"/>
<path d="M342.861 33V18.3333H350.647V33H342.861Z" fill="currentColor"/>
<path d="M350.653 33V18.3333H358.439V33H350.653Z" fill="currentColor"/>
<path d="M389.615 33V18.3333H397.4V33H389.615Z" fill="currentColor"/>
<path d="M397.407 33V18.3333H405.193V33H397.407Z" fill="currentColor"/>
<path d="M451.953 33V18.3333H459.739V33H451.953Z" fill="currentColor"/>
<path d="M459.745 33V18.3333H467.531V33H459.745Z" fill="currentColor"/>
<path d="M498.707 33V18.3333H506.493V33H498.707Z" fill="currentColor"/>
<path d="M506.499 33V18.3333H514.285V33H506.499Z" fill="currentColor"/>
<path d="M522.083 33V18.3333H529.869V33H522.083Z" fill="currentColor"/>
<path d="M529.876 33V18.3333H537.662V33H529.876Z" fill="currentColor"/>
<path d="M537.668 33V18.3333H545.454V33H537.668Z" fill="currentColor"/>
<path d="M545.46 33V18.3333H553.246V33H545.46Z" fill="currentColor"/>
<path d="M568.837 33V18.3333H576.623V33H568.837Z" fill="currentColor"/>
<path d="M576.629 33V18.3333H584.415V33H576.629Z" fill="currentColor"/>
<path d="M584.422 33V18.3333H592.208V33H584.422Z" fill="currentColor"/>
<path d="M592.214 33V18.3333H600V33H592.214Z" fill="currentColor"/>
<path d="M0 51.3333V36.6667H7.78595V51.3333H0Z" fill="currentColor"/>
<path d="M7.79229 51.3333V36.6667H15.5782V51.3333H7.79229Z" fill="currentColor"/>
<path d="M38.9615 51.3333V36.6667H46.7474V51.3333H38.9615Z" fill="currentColor"/>
<path d="M46.7537 51.3333V36.6667H54.5397V51.3333H46.7537Z" fill="currentColor"/>
<path d="M62.3383 51.3333V36.6667H70.1243V51.3333H62.3383Z" fill="currentColor"/>
<path d="M70.1306 51.3333V36.6667H77.9166V51.3333H70.1306Z" fill="currentColor"/>
<path d="M77.9229 51.3333V36.6667H85.7089V51.3333H77.9229Z" fill="currentColor"/>
<path d="M85.7152 51.3333V36.6667H93.5011V51.3333H85.7152Z" fill="currentColor"/>
<path d="M93.5075 51.3333V36.6667H101.293V51.3333H93.5075Z" fill="currentColor"/>
<path d="M124.677 51.3333V36.6667H132.463V51.3333H124.677Z" fill="currentColor"/>
<path d="M132.469 51.3333V36.6667H140.255V51.3333H132.469Z" fill="currentColor"/>
<path d="M140.261 51.3333V36.6667H148.047V51.3333H140.261Z" fill="currentColor"/>
<path d="M148.054 51.3333V36.6667H155.839V51.3333H148.054Z" fill="currentColor"/>
<path d="M155.846 51.3333V36.6667H163.632V51.3333H155.846Z" fill="currentColor"/>
<path d="M163.638 51.3333V36.6667H171.424V51.3333H163.638Z" fill="currentColor"/>
<path d="M171.43 51.3333V36.6667H179.216V51.3333H171.43Z" fill="currentColor"/>
<path d="M194.807 51.3333V36.6667H202.593V51.3333H194.807Z" fill="currentColor"/>
<path d="M202.6 51.3333V36.6667H210.385V51.3333H202.6Z" fill="currentColor"/>
<path d="M218.184 51.3333V36.6667H225.97V51.3333H218.184Z" fill="currentColor"/>
<path d="M225.976 51.3333V36.6667H233.762V51.3333H225.976Z" fill="currentColor"/>
<path d="M233.769 51.3333V36.6667H241.555V51.3333H233.769Z" fill="currentColor"/>
<path d="M241.561 51.3333V36.6667H249.347V51.3333H241.561Z" fill="currentColor"/>
<path d="M249.353 51.3333V36.6667H257.139V51.3333H249.353Z" fill="currentColor"/>
<path d="M257.146 51.3333V36.6667H264.932V51.3333H257.146Z" fill="currentColor"/>
<path d="M264.938 51.3333V36.6667H272.724V51.3333H264.938Z" fill="currentColor"/>
<path d="M288.315 51.3333V36.6667H296.101V51.3333H288.315Z" fill="currentColor"/>
<path d="M296.107 51.3333V36.6667H303.893V51.3333H296.107Z" fill="currentColor"/>
<path d="M311.692 51.3333V36.6667H319.478V51.3333H311.692Z" fill="currentColor"/>
<path d="M319.484 51.3333V36.6667H327.27V51.3333H319.484Z" fill="currentColor"/>
<path d="M342.861 51.3333V36.6667H350.647V51.3333H342.861Z" fill="currentColor"/>
<path d="M350.653 51.3333V36.6667H358.439V51.3333H350.653Z" fill="currentColor"/>
<path d="M389.615 51.3333V36.6667H397.4V51.3333H389.615Z" fill="currentColor"/>
<path d="M397.407 51.3333V36.6667H405.193V51.3333H397.407Z" fill="currentColor"/>
<path d="M451.953 51.3333V36.6667H459.739V51.3333H451.953Z" fill="currentColor"/>
<path d="M459.745 51.3333V36.6667H467.531V51.3333H459.745Z" fill="currentColor"/>
<path d="M498.707 51.3333V36.6667H506.493V51.3333H498.707Z" fill="currentColor"/>
<path d="M506.499 51.3333V36.6667H514.285V51.3333H506.499Z" fill="currentColor"/>
<path d="M522.083 51.3333V36.6667H529.869V51.3333H522.083Z" fill="currentColor"/>
<path d="M529.876 51.3333V36.6667H537.662V51.3333H529.876Z" fill="currentColor"/>
<path d="M545.46 51.3333V36.6667H553.246V51.3333H545.46Z" fill="currentColor"/>
<path d="M553.253 51.3333V36.6667H561.039V51.3333H553.253Z" fill="currentColor"/>
<path d="M561.045 51.3333V36.6667H568.831V51.3333H561.045Z" fill="currentColor"/>
<path d="M568.837 51.3333V36.6667H576.623V51.3333H568.837Z" fill="currentColor"/>
<path d="M584.422 51.3333V36.6667H592.208V51.3333H584.422Z" fill="currentColor"/>
<path d="M592.214 51.3333V36.6667H600V51.3333H592.214Z" fill="currentColor"/>
<path d="M0 69.6667V55H7.78595V69.6667H0Z" fill="currentColor"/>
<path d="M7.79229 69.6667V55H15.5782V69.6667H7.79229Z" fill="currentColor"/>
<path d="M38.9615 69.6667V55H46.7474V69.6667H38.9615Z" fill="currentColor"/>
<path d="M46.7537 69.6667V55H54.5397V69.6667H46.7537Z" fill="currentColor"/>
<path d="M62.3383 69.6667V55H70.1243V69.6667H62.3383Z" fill="currentColor"/>
<path d="M70.1306 69.6667V55H77.9166V69.6667H70.1306Z" fill="currentColor"/>
<path d="M163.638 69.6667V55H171.424V69.6667H163.638Z" fill="currentColor"/>
<path d="M171.43 69.6667V55H179.216V69.6667H171.43Z" fill="currentColor"/>
<path d="M194.807 69.6667V55H202.593V69.6667H194.807Z" fill="currentColor"/>
<path d="M202.6 69.6667V55H210.385V69.6667H202.6Z" fill="currentColor"/>
<path d="M218.184 69.6667V55H225.97V69.6667H218.184Z" fill="currentColor"/>
<path d="M225.976 69.6667V55H233.762V69.6667H225.976Z" fill="currentColor"/>
<path d="M264.938 69.6667V55H272.724V69.6667H264.938Z" fill="currentColor"/>
<path d="M272.73 69.6667V55H280.516V69.6667H272.73Z" fill="currentColor"/>
<path d="M288.315 69.6667V55H296.101V69.6667H288.315Z" fill="currentColor"/>
<path d="M296.107 69.6667V55H303.893V69.6667H296.107Z" fill="currentColor"/>
<path d="M319.484 69.6667V55H327.27V69.6667H319.484Z" fill="currentColor"/>
<path d="M327.276 69.6667V55H335.062V69.6667H327.276Z" fill="currentColor"/>
<path d="M342.861 69.6667V55H350.647V69.6667H342.861Z" fill="currentColor"/>
<path d="M350.653 69.6667V55H358.439V69.6667H350.653Z" fill="currentColor"/>
<path d="M389.615 69.6667V55H397.4V69.6667H389.615Z" fill="currentColor"/>
<path d="M397.407 69.6667V55H405.193V69.6667H397.407Z" fill="currentColor"/>
<path d="M451.953 69.6667V55H459.739V69.6667H451.953Z" fill="currentColor"/>
<path d="M459.745 69.6667V55H467.531V69.6667H459.745Z" fill="currentColor"/>
<path d="M498.707 69.6667V55H506.493V69.6667H498.707Z" fill="currentColor"/>
<path d="M506.499 69.6667V55H514.285V69.6667H506.499Z" fill="currentColor"/>
<path d="M522.083 69.6667V55H529.869V69.6667H522.083Z" fill="currentColor"/>
<path d="M529.876 69.6667V55H537.662V69.6667H529.876Z" fill="currentColor"/>
<path d="M553.253 69.6667V55H561.039V69.6667H553.253Z" fill="currentColor"/>
<path d="M561.045 69.6667V55H568.831V69.6667H561.045Z" fill="currentColor"/>
<path d="M584.422 69.6667V55H592.208V69.6667H584.422Z" fill="currentColor"/>
<path d="M592.214 69.6667V55H600V69.6667H592.214Z" fill="currentColor"/>
<path d="M0 88V73.3333H7.78595V88H0Z" fill="currentColor"/>
<path d="M7.79229 88V73.3333H15.5782V88H7.79229Z" fill="currentColor"/>
<path d="M15.5846 88V73.3333H23.3705V88H15.5846Z" fill="currentColor"/>
<path d="M23.3769 88V73.3333H31.1628V88H23.3769Z" fill="currentColor"/>
<path d="M31.1692 88V73.3333H38.9551V88H31.1692Z" fill="currentColor"/>
<path d="M38.9615 88V73.3333H46.7474V88H38.9615Z" fill="currentColor"/>
<path d="M62.3383 88V73.3333H70.1243V88H62.3383Z" fill="currentColor"/>
<path d="M70.1306 88V73.3333H77.9166V88H70.1306Z" fill="currentColor"/>
<path d="M77.9229 88V73.3333H85.7089V88H77.9229Z" fill="currentColor"/>
<path d="M85.7152 88V73.3333H93.5011V88H85.7152Z" fill="currentColor"/>
<path d="M93.5075 88V73.3333H101.293V88H93.5075Z" fill="currentColor"/>
<path d="M101.3 88V73.3333H109.086V88H101.3Z" fill="currentColor"/>
<path d="M109.092 88V73.3333H116.878V88H109.092Z" fill="currentColor"/>
<path d="M124.677 88V73.3333H132.463V88H124.677Z" fill="currentColor"/>
<path d="M132.469 88V73.3333H140.255V88H132.469Z" fill="currentColor"/>
<path d="M140.261 88V73.3333H148.047V88H140.261Z" fill="currentColor"/>
<path d="M148.054 88V73.3333H155.839V88H148.054Z" fill="currentColor"/>
<path d="M155.846 88V73.3333H163.632V88H155.846Z" fill="currentColor"/>
<path d="M163.638 88V73.3333H171.424V88H163.638Z" fill="currentColor"/>
<path d="M171.43 88V73.3333H179.216V88H171.43Z" fill="currentColor"/>
<path d="M194.807 88V73.3333H202.593V88H194.807Z" fill="currentColor"/>
<path d="M202.6 88V73.3333H210.385V88H202.6Z" fill="currentColor"/>
<path d="M225.976 88V73.3333H233.762V88H225.976Z" fill="currentColor"/>
<path d="M233.769 88V73.3333H241.555V88H233.769Z" fill="currentColor"/>
<path d="M241.561 88V73.3333H249.347V88H241.561Z" fill="currentColor"/>
<path d="M249.353 88V73.3333H257.139V88H249.353Z" fill="currentColor"/>
<path d="M257.146 88V73.3333H264.932V88H257.146Z" fill="currentColor"/>
<path d="M264.938 88V73.3333H272.724V88H264.938Z" fill="currentColor"/>
<path d="M288.315 88V73.3333H296.101V88H288.315Z" fill="currentColor"/>
<path d="M296.107 88V73.3333H303.893V88H296.107Z" fill="currentColor"/>
<path d="M327.276 88V73.3333H335.062V88H327.276Z" fill="currentColor"/>
<path d="M335.068 88V73.3333H342.854V88H335.068Z" fill="currentColor"/>
<path d="M342.861 88V73.3333H350.647V88H342.861Z" fill="currentColor"/>
<path d="M350.653 88V73.3333H358.439V88H350.653Z" fill="currentColor"/>
<path d="M366.238 88V73.3333H374.024V88H366.238Z" fill="currentColor"/>
<path d="M374.03 88V73.3333H381.816V88H374.03Z" fill="currentColor"/>
<path d="M397.407 88V73.3333H405.193V88H397.407Z" fill="currentColor"/>
<path d="M405.199 88V73.3333H412.985V88H405.199Z" fill="currentColor"/>
<path d="M412.991 88V73.3333H420.777V88H412.991Z" fill="currentColor"/>
<path d="M420.784 88V73.3333H428.57V88H420.784Z" fill="currentColor"/>
<path d="M428.576 88V73.3333H436.362V88H428.576Z" fill="currentColor"/>
<path d="M436.368 88V73.3333H444.154V88H436.368Z" fill="currentColor"/>
<path d="M459.745 88V73.3333H467.531V88H459.745Z" fill="currentColor"/>
<path d="M467.537 88V73.3333H475.323V88H467.537Z" fill="currentColor"/>
<path d="M475.33 88V73.3333H483.116V88H475.33Z" fill="currentColor"/>
<path d="M483.122 88V73.3333H490.908V88H483.122Z" fill="currentColor"/>
<path d="M490.914 88V73.3333H498.7V88H490.914Z" fill="currentColor"/>
<path d="M498.707 88V73.3333H506.493V88H498.707Z" fill="currentColor"/>
<path d="M522.083 88V73.3333H529.869V88H522.083Z" fill="currentColor"/>
<path d="M529.876 88V73.3333H537.662V88H529.876Z" fill="currentColor"/>
<path d="M584.422 88V73.3333H592.208V88H584.422Z" fill="currentColor"/>
<path d="M592.214 88V73.3333H600V88H592.214Z" fill="currentColor"/>
</g>
</svg>
