<svg width="600" height="96" viewBox="0 0 600 96" fill="none" xmlns="http://www.w3.org/2000/svg">
<path d="M0 15.8559V0H8.41725V15.8559H0Z" fill="currentColor"/>
<path d="M8.4241 15.8559V0H16.8413V15.8559H8.4241Z" fill="currentColor"/>
<path d="M16.8482 15.8559V0H25.2654V15.8559H16.8482Z" fill="currentColor"/>
<path d="M25.2723 15.8559V0H33.6895V15.8559H25.2723Z" fill="currentColor"/>
<path d="M33.6964 15.8559V0H42.1136V15.8559H33.6964Z" fill="currentColor"/>
<path d="M42.1205 15.8559V0H50.5377V15.8559H42.1205Z" fill="currentColor"/>
<path d="M67.3928 15.8559V0H75.81V15.8559H67.3928Z" fill="currentColor"/>
<path d="M75.8169 15.8559V0H84.2341V15.8559H75.8169Z" fill="currentColor"/>
<path d="M84.241 15.8559V0H92.6582V15.8559H84.241Z" fill="currentColor"/>
<path d="M92.6651 15.8559V0H101.082V15.8559H92.6651Z" fill="currentColor"/>
<path d="M101.089 15.8559V0H109.506V15.8559H101.089Z" fill="currentColor"/>
<path d="M109.513 15.8559V0H117.931V15.8559H109.513Z" fill="currentColor"/>
<path d="M117.937 15.8559V0H126.355V15.8559H117.937Z" fill="currentColor"/>
<path d="M134.786 15.8559V0H143.203V15.8559H134.786Z" fill="currentColor"/>
<path d="M143.21 15.8559V0H151.627V15.8559H143.21Z" fill="currentColor"/>
<path d="M151.634 15.8559V0H160.051V15.8559H151.634Z" fill="currentColor"/>
<path d="M160.058 15.8559V0H168.475V15.8559H160.058Z" fill="currentColor"/>
<path d="M168.482 15.8559V0H176.899V15.8559H168.482Z" fill="currentColor"/>
<path d="M176.906 15.8559V0H185.323V15.8559H176.906Z" fill="currentColor"/>
<path d="M185.33 15.8559V0H193.747V15.8559H185.33Z" fill="currentColor"/>
<path d="M210.602 15.8559V0H219.02V15.8559H210.602Z" fill="currentColor"/>
<path d="M219.027 15.8559V0H227.444V15.8559H219.027Z" fill="currentColor"/>
<path d="M244.299 15.8559V0H252.716V15.8559H244.299Z" fill="currentColor"/>
<path d="M252.723 15.8559V0H261.14V15.8559H252.723Z" fill="currentColor"/>
<path d="M261.147 15.8559V0H269.564V15.8559H261.147Z" fill="currentColor"/>
<path d="M269.571 15.8559V0H277.988V15.8559H269.571Z" fill="currentColor"/>
<path d="M277.995 15.8559V0H286.412V15.8559H277.995Z" fill="currentColor"/>
<path d="M286.419 15.8559V0H294.837V15.8559H286.419Z" fill="currentColor"/>
<path d="M311.692 15.8559V0H320.109V15.8559H311.692Z" fill="currentColor"/>
<path d="M320.116 15.8559V0H328.533V15.8559H320.116Z" fill="currentColor"/>
<path d="M328.54 15.8559V0H336.957V15.8559H328.54Z" fill="currentColor"/>
<path d="M370.66 15.8559V0H379.078V15.8559H370.66Z" fill="currentColor"/>
<path d="M379.084 15.8559V0H387.502V15.8559H379.084Z" fill="currentColor"/>
<path d="M0 35.6757V19.8198H8.41725V35.6757H0Z" fill="currentColor"/>
<path d="M8.4241 35.6757V19.8198H16.8413V35.6757H8.4241Z" fill="currentColor"/>
<path d="M42.1205 35.6757V19.8198H50.5377V35.6757H42.1205Z" fill="currentColor"/>
<path d="M50.5446 35.6757V19.8198H58.9618V35.6757H50.5446Z" fill="currentColor"/>
<path d="M67.3928 35.6757V19.8198H75.81V35.6757H67.3928Z" fill="currentColor"/>
<path d="M75.8169 35.6757V19.8198H84.2341V35.6757H75.8169Z" fill="currentColor"/>
<path d="M134.786 35.6757V19.8198H143.203V35.6757H134.786Z" fill="currentColor"/>
<path d="M143.21 35.6757V19.8198H151.627V35.6757H143.21Z" fill="currentColor"/>
<path d="M202.178 35.6757V19.8198H210.596V35.6757H202.178Z" fill="currentColor"/>
<path d="M210.602 35.6757V19.8198H219.02V35.6757H210.602Z" fill="currentColor"/>
<path d="M219.027 35.6757V19.8198H227.444V35.6757H219.027Z" fill="currentColor"/>
<path d="M235.875 35.6757V19.8198H244.292V35.6757H235.875Z" fill="currentColor"/>
<path d="M244.299 35.6757V19.8198H252.716V35.6757H244.299Z" fill="currentColor"/>
<path d="M311.692 35.6757V19.8198H320.109V35.6757H311.692Z" fill="currentColor"/>
<path d="M320.116 35.6757V19.8198H328.533V35.6757H320.116Z" fill="currentColor"/>
<path d="M328.54 35.6757V19.8198H336.957V35.6757H328.54Z" fill="currentColor"/>
<path d="M336.964 35.6757V19.8198H345.381V35.6757H336.964Z" fill="currentColor"/>
<path d="M370.66 35.6757V19.8198H379.078V35.6757H370.66Z" fill="currentColor"/>
<path d="M379.084 35.6757V19.8198H387.502V35.6757H379.084Z" fill="currentColor"/>
<path d="M0 55.4955V39.6396H8.41725V55.4955H0Z" fill="currentColor"/>
<path d="M8.4241 55.4955V39.6396H16.8413V55.4955H8.4241Z" fill="currentColor"/>
<path d="M42.1205 55.4955V39.6396H50.5377V55.4955H42.1205Z" fill="currentColor"/>
<path d="M50.5446 55.4955V39.6396H58.9618V55.4955H50.5446Z" fill="currentColor"/>
<path d="M67.3928 55.4955V39.6396H75.81V55.4955H67.3928Z" fill="currentColor"/>
<path d="M75.8169 55.4955V39.6396H84.2341V55.4955H75.8169Z" fill="currentColor"/>
<path d="M84.241 55.4955V39.6396H92.6582V55.4955H84.241Z" fill="currentColor"/>
<path d="M92.6651 55.4955V39.6396H101.082V55.4955H92.6651Z" fill="currentColor"/>
<path d="M101.089 55.4955V39.6396H109.506V55.4955H101.089Z" fill="currentColor"/>
<path d="M134.786 55.4955V39.6396H143.203V55.4955H134.786Z" fill="currentColor"/>
<path d="M143.21 55.4955V39.6396H151.627V55.4955H143.21Z" fill="currentColor"/>
<path d="M151.634 55.4955V39.6396H160.051V55.4955H151.634Z" fill="currentColor"/>
<path d="M160.058 55.4955V39.6396H168.475V55.4955H160.058Z" fill="currentColor"/>
<path d="M168.482 55.4955V39.6396H176.899V55.4955H168.482Z" fill="currentColor"/>
<path d="M176.906 55.4955V39.6396H185.323V55.4955H176.906Z" fill="currentColor"/>
<path d="M185.33 55.4955V39.6396H193.747V55.4955H185.33Z" fill="currentColor"/>
<path d="M210.602 55.4955V39.6396H219.02V55.4955H210.602Z" fill="currentColor"/>
<path d="M219.027 55.4955V39.6396H227.444V55.4955H219.027Z" fill="currentColor"/>
<path d="M235.875 55.4955V39.6396H244.292V55.4955H235.875Z" fill="currentColor"/>
<path d="M244.299 55.4955V39.6396H252.716V55.4955H244.299Z" fill="currentColor"/>
<path d="M252.723 55.4955V39.6396H261.14V55.4955H252.723Z" fill="currentColor"/>
<path d="M261.147 55.4955V39.6396H269.564V55.4955H261.147Z" fill="currentColor"/>
<path d="M269.571 55.4955V39.6396H277.988V55.4955H269.571Z" fill="currentColor"/>
<path d="M277.995 55.4955V39.6396H286.412V55.4955H277.995Z" fill="currentColor"/>
<path d="M286.419 55.4955V39.6396H294.837V55.4955H286.419Z" fill="currentColor"/>
<path d="M311.692 55.4955V39.6396H320.109V55.4955H311.692Z" fill="currentColor"/>
<path d="M320.116 55.4955V39.6396H328.533V55.4955H320.116Z" fill="currentColor"/>
<path d="M336.964 55.4955V39.6396H345.381V55.4955H336.964Z" fill="currentColor"/>
<path d="M345.388 55.4955V39.6396H353.805V55.4955H345.388Z" fill="currentColor"/>
<path d="M370.66 55.4955V39.6396H379.078V55.4955H370.66Z" fill="currentColor"/>
<path d="M379.084 55.4955V39.6396H387.502V55.4955H379.084Z" fill="currentColor"/>
<path d="M0 75.3153V59.4595H8.41725V75.3153H0Z" fill="currentColor"/>
<path d="M8.4241 75.3153V59.4595H16.8413V75.3153H8.4241Z" fill="currentColor"/>
<path d="M42.1205 75.3153V59.4595H50.5377V75.3153H42.1205Z" fill="currentColor"/>
<path d="M50.5446 75.3153V59.4595H58.9618V75.3153H50.5446Z" fill="currentColor"/>
<path d="M67.3928 75.3153V59.4595H75.81V75.3153H67.3928Z" fill="currentColor"/>
<path d="M75.8169 75.3153V59.4595H84.2341V75.3153H75.8169Z" fill="currentColor"/>
<path d="M176.906 75.3153V59.4595H185.323V75.3153H176.906Z" fill="currentColor"/>
<path d="M185.33 75.3153V59.4595H193.747V75.3153H185.33Z" fill="currentColor"/>
<path d="M210.602 75.3153V59.4595H219.02V75.3153H210.602Z" fill="currentColor"/>
<path d="M219.027 75.3153V59.4595H227.444V75.3153H219.027Z" fill="currentColor"/>
<path d="M235.875 75.3153V59.4595H244.292V75.3153H235.875Z" fill="currentColor"/>
<path d="M244.299 75.3153V59.4595H252.716V75.3153H244.299Z" fill="currentColor"/>
<path d="M286.419 75.3153V59.4595H294.837V75.3153H286.419Z" fill="currentColor"/>
<path d="M294.843 75.3153V59.4595H303.261V75.3153H294.843Z" fill="currentColor"/>
<path d="M311.692 75.3153V59.4595H320.109V75.3153H311.692Z" fill="currentColor"/>
<path d="M320.116 75.3153V59.4595H328.533V75.3153H320.116Z" fill="currentColor"/>
<path d="M345.388 75.3153V59.4595H353.805V75.3153H345.388Z" fill="currentColor"/>
<path d="M353.812 75.3153V59.4595H362.229V75.3153H353.812Z" fill="currentColor"/>
<path d="M370.66 75.3153V59.4595H379.078V75.3153H370.66Z" fill="currentColor"/>
<path d="M379.084 75.3153V59.4595H387.502V75.3153H379.084Z" fill="currentColor"/>
<path d="M0 95.1351V79.2793H8.41725V95.1351H0Z" fill="currentColor"/>
<path d="M8.4241 95.1351V79.2793H16.8413V95.1351H8.4241Z" fill="currentColor"/>
<path d="M16.8482 95.1351V79.2793H25.2654V95.1351H16.8482Z" fill="currentColor"/>
<path d="M25.2723 95.1351V79.2793H33.6895V95.1351H25.2723Z" fill="currentColor"/>
<path d="M33.6964 95.1351V79.2793H42.1136V95.1351H33.6964Z" fill="currentColor"/>
<path d="M42.1205 95.1351V79.2793H50.5377V95.1351H42.1205Z" fill="currentColor"/>
<path d="M67.3928 95.1351V79.2793H75.81V95.1351H67.3928Z" fill="currentColor"/>
<path d="M75.8169 95.1351V79.2793H84.2341V95.1351H75.8169Z" fill="currentColor"/>
<path d="M84.241 95.1351V79.2793H92.6582V95.1351H84.241Z" fill="currentColor"/>
<path d="M92.6651 95.1351V79.2793H101.082V95.1351H92.6651Z" fill="currentColor"/>
<path d="M101.089 95.1351V79.2793H109.506V95.1351H101.089Z" fill="currentColor"/>
<path d="M109.513 95.1351V79.2793H117.931V95.1351H109.513Z" fill="currentColor"/>
<path d="M117.937 95.1351V79.2793H126.355V95.1351H117.937Z" fill="currentColor"/>
<path d="M134.786 95.1351V79.2793H143.203V95.1351H134.786Z" fill="currentColor"/>
<path d="M143.21 95.1351V79.2793H151.627V95.1351H143.21Z" fill="currentColor"/>
<path d="M151.634 95.1351V79.2793H160.051V95.1351H151.634Z" fill="currentColor"/>
<path d="M160.058 95.1351V79.2793H168.475V95.1351H160.058Z" fill="currentColor"/>
<path d="M168.482 95.1351V79.2793H176.899V95.1351H168.482Z" fill="currentColor"/>
<path d="M176.906 95.1351V79.2793H185.323V95.1351H176.906Z" fill="currentColor"/>
<path d="M185.33 95.1351V79.2793H193.747V95.1351H185.33Z" fill="currentColor"/>
<path d="M210.602 95.1351V79.2793H219.02V95.1351H210.602Z" fill="currentColor"/>
<path d="M219.027 95.1351V79.2793H227.444V95.1351H219.027Z" fill="currentColor"/>
<path d="M244.299 95.1351V79.2793H252.716V95.1351H244.299Z" fill="currentColor"/>
<path d="M252.723 95.1351V79.2793H261.14V95.1351H252.723Z" fill="currentColor"/>
<path d="M261.147 95.1351V79.2793H269.564V95.1351H261.147Z" fill="currentColor"/>
<path d="M269.571 95.1351V79.2793H277.988V95.1351H269.571Z" fill="currentColor"/>
<path d="M277.995 95.1351V79.2793H286.412V95.1351H277.995Z" fill="currentColor"/>
<path d="M286.419 95.1351V79.2793H294.837V95.1351H286.419Z" fill="currentColor"/>
<path d="M311.692 95.1351V79.2793H320.109V95.1351H311.692Z" fill="currentColor"/>
<path d="M320.116 95.1351V79.2793H328.533V95.1351H320.116Z" fill="currentColor"/>
<path d="M353.812 95.1351V79.2793H362.229V95.1351H353.812Z" fill="currentColor"/>
<path d="M362.236 95.1351V79.2793H370.653V95.1351H362.236Z" fill="currentColor"/>
<path d="M370.66 95.1351V79.2793H379.078V95.1351H370.66Z" fill="currentColor"/>
<path d="M379.084 95.1351V79.2793H387.502V95.1351H379.084Z" fill="currentColor"/>
<path d="M425.73 32.0721V19.4595H432.428V32.0721H425.73Z" fill="currentColor"/>
<path d="M432.433 32.0721V19.4595H439.131V32.0721H432.433Z" fill="currentColor"/>
<path d="M439.136 32.0721V19.4595H445.834V32.0721H439.136Z" fill="currentColor"/>
<path d="M445.839 32.0721V19.4595H452.537V32.0721H445.839Z" fill="currentColor"/>
<path d="M452.542 32.0721V19.4595H459.239V32.0721H452.542Z" fill="currentColor"/>
<path d="M459.245 32.0721V19.4595H465.942V32.0721H459.245Z" fill="currentColor"/>
<path d="M479.354 32.0721V19.4595H486.051V32.0721H479.354Z" fill="currentColor"/>
<path d="M486.056 32.0721V19.4595H492.754V32.0721H486.056Z" fill="currentColor"/>
<path d="M492.759 32.0721V19.4595H499.457V32.0721H492.759Z" fill="currentColor"/>
<path d="M499.462 32.0721V19.4595H506.16V32.0721H499.462Z" fill="currentColor"/>
<path d="M506.165 32.0721V19.4595H512.863V32.0721H506.165Z" fill="currentColor"/>
<path d="M512.868 32.0721V19.4595H519.565V32.0721H512.868Z" fill="currentColor"/>
<path d="M532.977 32.0721V19.4595H539.674V32.0721H532.977Z" fill="currentColor"/>
<path d="M539.68 32.0721V19.4595H546.377V32.0721H539.68Z" fill="currentColor"/>
<path d="M546.382 32.0721V19.4595H553.08V32.0721H546.382Z" fill="currentColor"/>
<path d="M579.897 32.0721V19.4595H586.594V32.0721H579.897Z" fill="currentColor"/>
<path d="M586.6 32.0721V19.4595H593.297V32.0721H586.6Z" fill="currentColor"/>
<path d="M593.303 32.0721V19.4595H600V32.0721H593.303Z" fill="currentColor"/>
<path d="M419.028 47.8379V35.2252H425.725V47.8379H419.028Z" fill="currentColor"/>
<path d="M425.73 47.8379V35.2252H432.428V47.8379H425.73Z" fill="currentColor"/>
<path d="M472.651 47.8379V35.2252H479.348V47.8379H472.651Z" fill="currentColor"/>
<path d="M479.354 47.8379V35.2252H486.051V47.8379H479.354Z" fill="currentColor"/>
<path d="M512.868 47.8379V35.2252H519.565V47.8379H512.868Z" fill="currentColor"/>
<path d="M519.571 47.8379V35.2252H526.268V47.8379H519.571Z" fill="currentColor"/>
<path d="M532.977 47.8379V35.2252H539.674V47.8379H532.977Z" fill="currentColor"/>
<path d="M539.68 47.8379V35.2252H546.377V47.8379H539.68Z" fill="currentColor"/>
<path d="M546.382 47.8379V35.2252H553.08V47.8379H546.382Z" fill="currentColor"/>
<path d="M553.085 47.8379V35.2252H559.783V47.8379H553.085Z" fill="currentColor"/>
<path d="M573.194 47.8379V35.2252H579.891V47.8379H573.194Z" fill="currentColor"/>
<path d="M579.897 47.8379V35.2252H586.594V47.8379H579.897Z" fill="currentColor"/>
<path d="M586.6 47.8379V35.2252H593.297V47.8379H586.6Z" fill="currentColor"/>
<path d="M593.303 47.8379V35.2252H600V47.8379H593.303Z" fill="currentColor"/>
<path d="M419.028 63.6036V50.991H425.725V63.6036H419.028Z" fill="currentColor"/>
<path d="M425.73 63.6036V50.991H432.428V63.6036H425.73Z" fill="currentColor"/>
<path d="M472.651 63.6036V50.991H479.348V63.6036H472.651Z" fill="currentColor"/>
<path d="M479.354 63.6036V50.991H486.051V63.6036H479.354Z" fill="currentColor"/>
<path d="M512.868 63.6036V50.991H519.565V63.6036H512.868Z" fill="currentColor"/>
<path d="M519.571 63.6036V50.991H526.268V63.6036H519.571Z" fill="currentColor"/>
<path d="M532.977 63.6036V50.991H539.674V63.6036H532.977Z" fill="currentColor"/>
<path d="M539.68 63.6036V50.991H546.377V63.6036H539.68Z" fill="currentColor"/>
<path d="M553.085 63.6036V50.991H559.783V63.6036H553.085Z" fill="currentColor"/>
<path d="M559.788 63.6036V50.991H566.486V63.6036H559.788Z" fill="currentColor"/>
<path d="M566.491 63.6036V50.991H573.188V63.6036H566.491Z" fill="currentColor"/>
<path d="M573.194 63.6036V50.991H579.891V63.6036H573.194Z" fill="currentColor"/>
<path d="M586.6 63.6036V50.991H593.297V63.6036H586.6Z" fill="currentColor"/>
<path d="M593.303 63.6036V50.991H600V63.6036H593.303Z" fill="currentColor"/>
<path d="M419.028 79.3694V66.7568H425.725V79.3694H419.028Z" fill="currentColor"/>
<path d="M425.73 79.3694V66.7568H432.428V79.3694H425.73Z" fill="currentColor"/>
<path d="M472.651 79.3694V66.7568H479.348V79.3694H472.651Z" fill="currentColor"/>
<path d="M479.354 79.3694V66.7568H486.051V79.3694H479.354Z" fill="currentColor"/>
<path d="M512.868 79.3694V66.7568H519.565V79.3694H512.868Z" fill="currentColor"/>
<path d="M519.571 79.3694V66.7568H526.268V79.3694H519.571Z" fill="currentColor"/>
<path d="M532.977 79.3694V66.7568H539.674V79.3694H532.977Z" fill="currentColor"/>
<path d="M539.68 79.3694V66.7568H546.377V79.3694H539.68Z" fill="currentColor"/>
<path d="M559.788 79.3694V66.7568H566.486V79.3694H559.788Z" fill="currentColor"/>
<path d="M566.491 79.3694V66.7568H573.188V79.3694H566.491Z" fill="currentColor"/>
<path d="M586.6 79.3694V66.7568H593.297V79.3694H586.6Z" fill="currentColor"/>
<path d="M593.303 79.3694V66.7568H600V79.3694H593.303Z" fill="currentColor"/>
<path d="M398.919 95.1351V82.5225H405.616V95.1351H398.919Z" fill="currentColor"/>
<path d="M405.622 95.1351V82.5225H412.319V95.1351H405.622Z" fill="currentColor"/>
<path d="M425.73 95.1351V82.5225H432.428V95.1351H425.73Z" fill="currentColor"/>
<path d="M432.433 95.1351V82.5225H439.131V95.1351H432.433Z" fill="currentColor"/>
<path d="M439.136 95.1351V82.5225H445.834V95.1351H439.136Z" fill="currentColor"/>
<path d="M445.839 95.1351V82.5225H452.537V95.1351H445.839Z" fill="currentColor"/>
<path d="M452.542 95.1351V82.5225H459.239V95.1351H452.542Z" fill="currentColor"/>
<path d="M459.245 95.1351V82.5225H465.942V95.1351H459.245Z" fill="currentColor"/>
<path d="M479.354 95.1351V82.5225H486.051V95.1351H479.354Z" fill="currentColor"/>
<path d="M486.056 95.1351V82.5225H492.754V95.1351H486.056Z" fill="currentColor"/>
<path d="M492.759 95.1351V82.5225H499.457V95.1351H492.759Z" fill="currentColor"/>
<path d="M499.462 95.1351V82.5225H506.16V95.1351H499.462Z" fill="currentColor"/>
<path d="M506.165 95.1351V82.5225H512.863V95.1351H506.165Z" fill="currentColor"/>
<path d="M512.868 95.1351V82.5225H519.565V95.1351H512.868Z" fill="currentColor"/>
<path d="M532.977 95.1351V82.5225H539.674V95.1351H532.977Z" fill="currentColor"/>
<path d="M539.68 95.1351V82.5225H546.377V95.1351H539.68Z" fill="currentColor"/>
<path d="M586.6 95.1351V82.5225H593.297V95.1351H586.6Z" fill="currentColor"/>
<path d="M593.303 95.1351V82.5225H600V95.1351H593.303Z" fill="currentColor"/>
</svg>
